<?xml version="1.0" encoding="UTF-8" standalone="no"?>
<!DOCTYPE svg PUBLIC "-//W3C//DTD SVG 1.1//EN"
 "http://www.w3.org/Graphics/SVG/1.1/DTD/svg11.dtd">
<!-- Generated by graphviz version 2.42.4 (0)
 -->
<!-- Title: G Pages: 1 -->
<svg width="685pt" height="354pt"
 viewBox="0.00 0.00 685.00 354.00" xmlns="http://www.w3.org/2000/svg" xmlns:xlink="http://www.w3.org/1999/xlink">
<g id="graph0" class="graph" transform="scale(1 1) rotate(0) translate(4 350)">
<title>G</title>
<polygon fill="white" stroke="transparent" points="-4,4 -4,-350 681,-350 681,4 -4,4"/>
<g id="clust1" class="cluster">
<title>cluster_registry</title>
<polygon fill="#fff7e6" stroke="#cbd5e0" points="178,-8 178,-338 467,-338 467,-8 178,-8"/>
<text text-anchor="middle" x="322.5" y="-325.2" font-family="Arial" font-size="11.00">AdapterRegistry</text>
</g>
<g id="clust2" class="cluster">
<title>cluster_apis</title>
<polygon fill="white" stroke="#a0aec0" stroke-dasharray="5,2" points="553,-136 553,-207 669,-207 669,-136 553,-136"/>
<text text-anchor="middle" x="611" y="-195" font-family="Arial" font-size="10.00">LLM APIs (external)</text>
</g>
<!-- TenetCore -->
<g id="node1" class="node">
<title>TenetCore</title>
<path fill="#e8f0fe" stroke="#4a5568" d="M50,-189C50,-189 12,-189 12,-189 6,-189 0,-183 0,-177 0,-177 0,-165 0,-165 0,-159 6,-153 12,-153 12,-153 50,-153 50,-153 56,-153 62,-159 62,-165 62,-165 62,-177 62,-177 62,-183 56,-189 50,-189"/>
<text text-anchor="middle" x="31" y="-168.5" font-family="Arial" font-size="10.00">TenetCore</text>
</g>
<!-- AdapterRegistry -->
<g id="node2" class="node">
<title>AdapterRegistry</title>
<path fill="#fff7e6" stroke="#4a5568" d="M261,-189C261,-189 198,-189 198,-189 192,-189 186,-183 186,-177 186,-177 186,-165 186,-165 186,-159 192,-153 198,-153 198,-153 261,-153 261,-153 267,-153 273,-159 273,-165 273,-165 273,-177 273,-177 273,-183 267,-189 261,-189"/>
<text text-anchor="middle" x="229.5" y="-168.5" font-family="Arial" font-size="10.00">AdapterRegistry</text>
</g>
<!-- TenetCore&#45;&gt;AdapterRegistry -->
<g id="edge1" class="edge">
<title>TenetCore&#45;&gt;AdapterRegistry</title>
<path fill="none" stroke="#4a5568" d="M62.27,-171C93.26,-171 141.93,-171 178.62,-171"/>
<polygon fill="#4a5568" stroke="#4a5568" points="178.79,-173.45 185.79,-171 178.79,-168.55 178.79,-173.45"/>
<text text-anchor="middle" x="124" y="-173.8" font-family="Arial" font-size="9.00">LLM request</text>
</g>
<!-- AnthropicAdapter -->
<g id="node3" class="node">
<title>AnthropicAdapter</title>
<path fill="#f3e8ff" stroke="#4a5568" d="M447,-310C447,-310 379,-310 379,-310 373,-310 367,-304 367,-298 367,-298 367,-286 367,-286 367,-280 373,-274 379,-274 379,-274 447,-274 447,-274 453,-274 459,-280 459,-286 459,-286 459,-298 459,-298 459,-304 453,-310 447,-310"/>
<text text-anchor="middle" x="413" y="-289.5" font-family="Arial" font-size="10.00">AnthropicAdapter</text>
</g>
<!-- AdapterRegistry&#45;&gt;AnthropicAdapter -->
<g id="edge2" class="edge">
<title>AdapterRegistry&#45;&gt;AnthropicAdapter</title>
<path fill="none" stroke="#4a5568" d="M257.67,-189.11C290.11,-210.74 344.33,-246.89 379.11,-270.07"/>
<polygon fill="#4a5568" stroke="#4a5568" points="377.76,-272.11 384.94,-273.96 380.47,-268.04 377.76,-272.11"/>
<text text-anchor="middle" x="320" y="-237.8" font-family="Arial" font-size="9.00">route</text>
</g>
<!-- OpenAIAdapter -->
<g id="node4" class="node">
<title>OpenAIAdapter</title>
<path fill="#f3e8ff" stroke="#4a5568" d="M442.5,-224C442.5,-224 383.5,-224 383.5,-224 377.5,-224 371.5,-218 371.5,-212 371.5,-212 371.5,-200 371.5,-200 371.5,-194 377.5,-188 383.5,-188 383.5,-188 442.5,-188 442.5,-188 448.5,-188 454.5,-194 454.5,-200 454.5,-200 454.5,-212 454.5,-212 454.5,-218 448.5,-224 442.5,-224"/>
<text text-anchor="middle" x="413" y="-203.5" font-family="Arial" font-size="10.00">OpenAIAdapter</text>
</g>
<!-- AdapterRegistry&#45;&gt;OpenAIAdapter -->
<g id="edge3" class="edge">
<title>AdapterRegistry&#45;&gt;OpenAIAdapter</title>
<path fill="none" stroke="#4a5568" d="M273.05,-179.21C300.39,-184.48 335.94,-191.33 364.24,-196.79"/>
<polygon fill="#4a5568" stroke="#4a5568" points="363.93,-199.23 371.27,-198.15 364.86,-194.41 363.93,-199.23"/>
<text text-anchor="middle" x="320" y="-191.8" font-family="Arial" font-size="9.00">route</text>
</g>
<!-- GeminiAdapter -->
<g id="node5" class="node">
<title>GeminiAdapter</title>
<path fill="#f3e8ff" stroke="#4a5568" d="M441.5,-138C441.5,-138 384.5,-138 384.5,-138 378.5,-138 372.5,-132 372.5,-126 372.5,-126 372.5,-114 372.5,-114 372.5,-108 378.5,-102 384.5,-102 384.5,-102 441.5,-102 441.5,-102 447.5,-102 453.5,-108 453.5,-114 453.5,-114 453.5,-126 453.5,-126 453.5,-132 447.5,-138 441.5,-138"/>
<text text-anchor="middle" x="413" y="-117.5" font-family="Arial" font-size="10.00">GeminiAdapter</text>
</g>
<!-- AdapterRegistry&#45;&gt;GeminiAdapter -->
<g id="edge4" class="edge">
<title>AdapterRegistry&#45;&gt;GeminiAdapter</title>
<path fill="none" stroke="#4a5568" d="M273.05,-159.04C300.68,-151.28 336.7,-141.16 365.14,-133.17"/>
<polygon fill="#4a5568" stroke="#4a5568" points="366.12,-135.44 372.2,-131.18 364.8,-130.72 366.12,-135.44"/>
<text text-anchor="middle" x="320" y="-150.8" font-family="Arial" font-size="9.00">route</text>
</g>
<!-- CohereAdapter -->
<g id="node6" class="node">
<title>CohereAdapter</title>
<path fill="#f3e8ff" stroke="#4a5568" d="M442,-52C442,-52 384,-52 384,-52 378,-52 372,-46 372,-40 372,-40 372,-28 372,-28 372,-22 378,-16 384,-16 384,-16 442,-16 442,-16 448,-16 454,-22 454,-28 454,-28 454,-40 454,-40 454,-46 448,-52 442,-52"/>
<text text-anchor="middle" x="413" y="-31.5" font-family="Arial" font-size="10.00">CohereAdapter</text>
</g>
<!-- AdapterRegistry&#45;&gt;CohereAdapter -->
<g id="edge5" class="edge">
<title>AdapterRegistry&#45;&gt;CohereAdapter</title>
<path fill="none" stroke="#4a5568" d="M254.6,-152.81C287.51,-127.97 346.47,-83.46 382.14,-56.54"/>
<polygon fill="#4a5568" stroke="#4a5568" points="383.98,-58.22 388.09,-52.05 381.02,-54.31 383.98,-58.22"/>
<text text-anchor="middle" x="320" y="-112.8" font-family="Arial" font-size="9.00">route</text>
</g>
<!-- LLMAPIs -->
<g id="node7" class="node">
<title>LLMAPIs</title>
<path fill="#f3e8ff" stroke="#4a5568" d="M649,-180C649,-180 573,-180 573,-180 567,-180 561,-174 561,-168 561,-168 561,-156 561,-156 561,-150 567,-144 573,-144 573,-144 649,-144 649,-144 655,-144 661,-150 661,-156 661,-156 661,-168 661,-168 661,-174 655,-180 649,-180"/>
<text text-anchor="middle" x="611" y="-165" font-family="Arial" font-size="10.00">Anthropic / OpenAI</text>
<text text-anchor="middle" x="611" y="-154" font-family="Arial" font-size="10.00">Gemini / Cohere</text>
</g>
<!-- AnthropicAdapter&#45;&gt;LLMAPIs -->
<g id="edge6" class="edge">
<title>AnthropicAdapter&#45;&gt;LLMAPIs</title>
<path fill="none" stroke="#4a5568" d="M441.25,-273.92C476.7,-250.41 538.58,-209.37 576.75,-184.05"/>
<polygon fill="#4a5568" stroke="#4a5568" points="578.18,-186.04 582.66,-180.13 575.48,-181.96 578.18,-186.04"/>
<text text-anchor="middle" x="510" y="-236.8" font-family="Arial" font-size="9.00">HTTPS</text>
</g>
<!-- OpenAIAdapter&#45;&gt;LLMAPIs -->
<g id="edge7" class="edge">
<title>OpenAIAdapter&#45;&gt;LLMAPIs</title>
<path fill="none" stroke="#4a5568" d="M454.61,-196.88C483.28,-190.45 522.06,-181.74 553.71,-174.64"/>
<polygon fill="#4a5568" stroke="#4a5568" points="554.47,-176.98 560.76,-173.05 553.39,-172.2 554.47,-176.98"/>
<text text-anchor="middle" x="510" y="-188.8" font-family="Arial" font-size="9.00">HTTPS</text>
</g>
<!-- GeminiAdapter&#45;&gt;LLMAPIs -->
<g id="edge8" class="edge">
<title>GeminiAdapter&#45;&gt;LLMAPIs</title>
<path fill="none" stroke="#4a5568" d="M453.74,-119.91C475.1,-120.6 501.75,-122.65 525,-128 538.45,-131.1 552.56,-136.01 565.33,-141.14"/>
<polygon fill="#4a5568" stroke="#4a5568" points="564.47,-143.44 571.88,-143.84 566.34,-138.91 564.47,-143.44"/>
<text text-anchor="middle" x="510" y="-130.8" font-family="Arial" font-size="9.00">HTTPS</text>
</g>
<!-- CohereAdapter&#45;&gt;LLMAPIs -->
<g id="edge9" class="edge">
<title>CohereAdapter&#45;&gt;LLMAPIs</title>
<path fill="none" stroke="#4a5568" d="M445.51,-52.12C467.96,-65.25 498.69,-83.66 525,-101 543.64,-113.29 563.97,-127.84 580.08,-139.64"/>
<polygon fill="#4a5568" stroke="#4a5568" points="578.72,-141.68 585.81,-143.86 581.62,-137.74 578.72,-141.68"/>
<text text-anchor="middle" x="510" y="-103.8" font-family="Arial" font-size="9.00">HTTPS</text>
</g>
</g>
</svg>
